{"title":"The Avengers Earths Mightiest Heroes 2010 S01E05 720p WEB-DL x26","uid":5913213,"size":774888774,"categoryP":"video","categoryS":"hd___tv_shows","magnet":"?xt=urn:btih:8e22868e1f5a7414727dc630a8c7fbd4822cdbb4&amp;dn=The+Avengers+Earths+Mightiest+Heroes+2010+S01E05+720p+WEB-DL+x26&amp;tr=udp%3A%2F%2Ftracker.openbittorrent.com%3A80&amp;tr=udp%3A%2F%2Fopen.demonii.com%3A1337&amp;tr=udp%3A%2F%2Ftracker.coppersurfer.tk%3A6969&amp;tr=udp%3A%2F%2Fexodus.desync.com%3A6969","seeders":0,"leechers":1,"uploader":"BOZX","files":1,"time":1288127360,"description":"General\n\nThe Avengers Earths Mightiest Heroes 2010 S01E05 720p WEB-DL x264-T00NG0D BOZX\n\nComplete name                    : The.Avengers.Earths.Mightiest.Heroes.2010.S01E05.The.Man.In.the.Ant.Hill.720p.WEB-DL.AC3-5.1.x264-T00NG0D.mkv\nFormat                           : Matroska\nFile size                        : 739 MiB\nDuration                         : 23mn 7s\nOverall bit rate                 : 4 467 Kbps\nEncoded date                     : UTC 2010-10-22 04:12:32\nWriting application              : mkvmerge v4.0.0 ('The Stars were mine') built on Jun  5 2010 17:44:09\nWriting library                  : libebml v1.0.0 + libmatroska v1.0.0\n\nVideo\nID                               : 1\nFormat                           : AVC\nFormat/Info                      : Advanced Video Codec\nFormat profile                   : &lt;a class=&quot;__cf_email__&quot; href=&quot;/cdn-cgi/l/email-protection&quot; data-cfemail=&quot;f1b9989699b1bdc2dfc0&quot;&gt;[email&amp;#160;protected]&lt;/a&gt;&lt;script cf-hash='f9e31' type=&quot;text/javascript&quot;&gt;\n/* &lt;![CDATA[ */!function(){try{var t=&quot;currentScript&quot;in document?document.currentScript:function(){for(var t=document.getElementsByTagName(&quot;script&quot;),e=t.length;e--;)if(t[e].getAttribute(&quot;cf-hash&quot;))return t[e]}();if(t&amp;&amp;t.previousSibling){var e,r,n,i,c=t.previousSibling,a=c.getAttribute(&quot;data-cfemail&quot;);if(a){for(e=&quot;&quot;,r=parseInt(a.substr(0,2),16),n=2;a.length-n;n+=2)i=parseInt(a.substr(n,2),16)^r,e+=String.fromCharCode(i);e=document.createTextNode(e),c.parentNode.replaceChild(e,c)}}}catch(u){}}();/* ]]&gt; */&lt;/script&gt;\nFormat settings, CABAC           : No\nFormat settings, ReFrames        : 2 frames\nFormat settings, GOP             : M=2, N=32\nMuxing mode                      : Container profile=&lt;a class=&quot;__cf_email__&quot; href=&quot;/cdn-cgi/l/email-protection&quot; data-cfemail=&quot;fda8939693928a93bdced3cc&quot;&gt;[email&amp;#160;protected]&lt;/a&gt;&lt;script cf-hash='f9e31' type=&quot;text/javascript&quot;&gt;\n/* &lt;![CDATA[ */!function(){try{var t=&quot;currentScript&quot;in document?document.currentScript:function(){for(var t=document.getElementsByTagName(&quot;script&quot;),e=t.length;e--;)if(t[e].getAttribute(&quot;cf-hash&quot;))return t[e]}();if(t&amp;&amp;t.previousSibling){var e,r,n,i,c=t.previousSibling,a=c.getAttribute(&quot;data-cfemail&quot;);if(a){for(e=&quot;&quot;,r=parseInt(a.substr(0,2),16),n=2;a.length-n;n+=2)i=parseInt(a.substr(n,2),16)^r,e+=String.fromCharCode(i);e=document.createTextNode(e),c.parentNode.replaceChild(e,c)}}}catch(u){}}();/* ]]&gt; */&lt;/script&gt;\nCodec ID                         : V_MPEG4/ISO/AVC\nDuration                         : 23mn 7s\nBit rate mode                    : Variable\nBit rate                         : 3 994 Kbps\nWidth                            : 1 280 pixels\nHeight                           : 718 pixels\nDisplay aspect ratio             : 16:9\nFrame rate                       : 23.976 fps\nColor space                      : YUV\nChroma subsampling               : 4:2:0\nBit depth                        : 8 bits\nScan type                        : Progressive\nBits/(Pixel*Frame)               : 0.181\nStream size                      : 661 MiB (89%)\nLanguage                         : English\nColor primaries                  : BT.709-5, BT.1361, IEC 61966-2-4, SMPTE RP177\nTransfer characteristics         : BT.709-5, BT.1361\nMatrix coefficients              : BT.709-5, BT.1361, IEC 61966-2-4 709, SMPTE RP177\n\nAudio\nID                               : 2\nFormat                           : AC-3\nFormat/Info                      : Audio Coding 3\nMode extension                   : CM (complete main)\nCodec ID                         : A_AC3\nDuration                         : 23mn 7s\nBit rate mode                    : Constant\nBit rate                         : 384 Kbps\nChannel(s)                       : 6 channels\nChannel positions                : Front: L C R, Side: L R, LFE\nSampling rate                    : 48.0 KHz\nBit depth                        : 16 bits\nStream size                      : 63.5 MiB (9%)\nLanguage                         : English\nSource                           : CN HD","torrent":{"xt":"urn:btih:8e22868e1f5a7414727dc630a8c7fbd4822cdbb4","amp;dn":"The+Avengers+Earths+Mightiest+Heroes+2010+S01E05+720p+WEB-DL+x26","amp;tr":["udp%3A%2F%2Ftracker.openbittorrent.com%3A80","udp%3A%2F%2Fopen.demonii.com%3A1337","udp%3A%2F%2Ftracker.coppersurfer.tk%3A6969","udp%3A%2F%2Fexodus.desync.com%3A6969"],"infoHash":"8e22868e1f5a7414727dc630a8c7fbd4822cdbb4","infoHashBuffer":{"type":"Buffer","data":[142,34,134,142,31,90,116,20,114,125,198,48,168,199,251,212,130,44,219,180]},"announce":[],"urlList":[]}}